# xmcd CD database file
#
# Track frame offsets:
#	150
#	22542
#	39557
#	61395
#	79705
#	97132
#	113682
#	130970
#	147627
#
# Disc length: 2229 seconds
#
# Revision: 1
# Processed by: cddbd v1.5.1PL0 Copyright (c) Steve Scherf et al.
# Submitted via: CDex 1.51
#
DISCID=7408b309
DTITLE=Umberto Tozzi - Donna Amante Mia
DYEAR=1976
DGENRE=Pop
TTITLE0=Donna Amante Mia
TTITLE1=Ripensando Alla Freccia Del Sud
TTITLE2=Io Camminerò
TTITLE3=Il Marinaio Delle Stelle
TTITLE4=Mi Manca
TTITLE5=Angela
TTITLE6=Per Darti Amore
TTITLE7=Scegli
TTITLE8=Tu Sei Di Me
EXTD=YEAR: 1976
EXTT0=
EXTT1=
EXTT2=
EXTT3=
EXTT4=
EXTT5=
EXTT6=
EXTT7=
EXTT8=
PLAYORDER=
